<?xml version="1.0" encoding="UTF-8"?>
<svg xmlns="http://www.w3.org/2000/svg" viewBox="0 0 64 64" width="64" height="64">
  <defs>
    <style>
      @import url('https://fonts.googleapis.com/css2?family=Cormorant+Garamond:wght@600&amp;display=swap');
    </style>
  </defs>

  <!-- Aperture -->
  <g opacity="0.2">
    <path d="M 32.0,4.0 Q 42.9,9.3 53.9,14.5 L 36.6,22.4 Z" fill="#c9a96e" />
    <path d="M 53.9,14.5 Q 56.6,26.4 59.3,38.2 L 42.4,29.6 Z" fill="#c9a96e" />
    <path d="M 59.3,38.2 Q 51.7,47.7 44.1,57.2 L 40.3,38.6 Z" fill="#c9a96e" />
    <path d="M 44.1,57.2 Q 32.0,57.2 19.9,57.2 L 32.0,42.6 Z" fill="#c9a96e" />
    <path d="M 19.9,57.2 Q 12.3,47.7 4.7,38.2 L 23.7,38.6 Z" fill="#c9a96e" />
    <path d="M 4.7,38.2 Q 7.4,26.4 10.1,14.5 L 21.6,29.6 Z" fill="#c9a96e" />
    <path d="M 10.1,14.5 Q 21.1,9.3 32.0,4.0 L 27.4,22.4 Z" fill="#c9a96e" />
  </g>
  <circle cx="32.0" cy="32.0" r="28" fill="none" stroke="#c9a96e" stroke-width="1" opacity="0.4" />

  <!-- Initials -->
  <text x="32.0" y="39.0" text-anchor="middle"
        font-family="'Cormorant Garamond', Georgia, serif"
        font-size="22" font-weight="600" letter-spacing="0.1em"
        fill="#1a1614">P&amp;S</text>
</svg>